<?xml version="1.0" encoding="utf-8"?>
<!-- Generator: Adobe Illustrator 16.0.0, SVG Export Plug-In . SVG Version: 6.00 Build 0)  -->
<!DOCTYPE svg PUBLIC "-//W3C//DTD SVG 1.1//EN" "http://www.w3.org/Graphics/SVG/1.1/DTD/svg11.dtd">
<svg version="1.1" id="Layer_1" xmlns="http://www.w3.org/2000/svg" xmlns:xlink="http://www.w3.org/1999/xlink" x="0px" y="0px"
	 width="566.93px" height="566.93px" viewBox="0 0 566.93 566.93" enable-background="new 0 0 566.93 566.93" xml:space="preserve">
<rect width="566.93" height="566.93"/>
<g>
	<path fill="#FFFFFF" d="M268.152,201.247c2.779-3.148,6.663-3.277,10.256-4.298c0.674-0.189,1.3-0.657,1.852-1.108
		c0.407-0.345,0.68-0.843,0.956-1.19c-0.603-1.285-1.339-2.366-1.573-3.534c-0.425-2.139-1.493-2.653-3.712-2.096
		c-2.261,0.564-4.614,0.955-6.95,1.054c-3.333,0.148-5.399,1.86-7.053,4.235c-1.173,1.672-0.633,4.428,1.097,6.443
		C264.605,202.585,267.222,202.289,268.152,201.247z"/>
	<path fill="#FFFFFF" d="M278.8,233.216c1.088,1.701,0.738,2.905-0.205,4.058c-0.939,1.135-2.382,1.91-3.575,2.867
		c-1.557,1.268-1.388,3.437,0.36,3.481c4.034,0.107,8.225,0.717,12.02-1.252c0.574-0.307,1.395-1.337,1.32-1.431
		c-1.558-1.763,0.428-4.628-2.364-6.131c-0.884-0.477-1.034-2.153-1.525-3.283c0.279-0.075,0.549-0.156,0.816-0.227
		c-0.047-1.083,0.106-2.207-0.219-3.195c-0.202-0.636-1.076-1.465-1.734-1.521C279.479,226.175,276.625,229.863,278.8,233.216z"/>
	<path fill="#FFFFFF" d="M274.13,232.119c-0.769-1.579-2.231-1.784-3.347-0.429c-1.009,1.229-1.935,2.504-2.927,3.794
		c2.092,2.232,3.71,2.842,5.194,1.874C274.387,236.462,274.94,233.811,274.13,232.119z"/>
	<path fill="#FFFFFF" d="M478.806,260.458c0.246-3.205,0.054-6.447-0.01-9.671c-0.012-0.68-0.179-1.378-0.404-2.027
		c-0.677-1.969-1.342-3.949-2.16-5.871c-1.064-2.494-1.841-5.21-4.097-7.044c-3.381-2.748-6.471-5.83-10.712-7.615
		c-1.883-0.792-3.708-1.949-4.824-3.811c-0.869-1.447-1.846-2.897-3.055-4.102c-5.069-5.041-11.305-8.065-18.696-8.93
		c-6.838-0.798-13.488-0.383-19.687,2.789c-0.565,0.29-1.214,0.438-1.658,0.591c-0.199-0.039-0.364-0.096-0.516-0.159
		c-0.356,0.224-0.69,0.473-1.035,0.71c-5.027-10.996-11.05-21.445-18.047-31.249c-4.843-6.792-10.435-13.391-16.62-19.613
		c-6.301-6.34-12.699-11.257-19.559-15.028c-2.146-1.178-4.319-2.408-6.422-3.597c-10.278-5.822-20.909-11.84-33.276-14.551
		c-2.248-0.493-4.538-1.017-6.754-1.525c-6.838-1.567-13.913-3.188-21.021-4.14c-5.44-0.731-11.009-1.102-16.558-1.102
		c-10.104,0-20.458,1.224-30.783,3.64c-7.861,1.852-15.687,4.29-23.262,7.246c-10.888,4.256-19.614,9.149-26.678,14.962
		c-5.393,4.453-10.971,9.058-16.363,13.885c-6.585,5.888-11.52,12.778-15.877,19.351c-5.665,8.599-11.547,17.846-15.721,27.998
		c-0.737,1.788-1.417,3.542-2.072,5.281c-0.704-0.182-1.404-0.38-2.084-0.584c-1.291-0.021-2.595,0.006-3.826-0.256
		c-0.021,0.05-0.042,0.099-0.062,0.15c-2.31,0.016-4.76-0.104-7.184,0.083c-2.469,0.192-4.908,0.687-7.53,1.073
		c-0.424,0.3-8.568,1.414-14.279,6.367c-1.62,1.404-3.281,2.753-4.556,4.498c-0.853,1.166-2.252,1.974-3.242,3.069
		c-0.779,0.858-1.243,1.954-1.956,2.872c-2,2.583-3.334,5.456-3.886,8.559c-0.63,3.549-0.946,7.15-1.365,10.731
		c-0.061,0.524-0.049,1.117,0.156,1.594c0.685,1.617,1.454,3.207,2.225,4.794c0.709,1.454,1.459,2.893,2.177,4.312
		c-0.061,0.107-0.083,0.193-0.142,0.238c-0.246,0.201-0.501,0.394-0.756,0.587c-4.222,3.227-8.335,6.48-10.057,11.636
		c-1.753,5.258-2.124,10.358,0.96,15.323c0.412,0.665,0.73,1.386,1.045,2.097c1.895,4.28,4.442,8.033,9.132,10.173
		c1.088,0.495,2.011,1.309,2.989,1.962c-0.486,3.811-0.787,7.55-1.496,11.219c-0.494,2.571-0.303,4.88,0.641,6.21
		c0.714,3.241,0.854,5.676,1.82,7.791c1.04,2.274,2.859,4.239,4.323,6.353c2.44,3.504,5.809,6.141,9.847,7.72
		c3.402,1.327,6.997,2.487,10.839,2.438c0.968-0.012,1.941,0.31,2.911,0.3c1.809-0.019,3.66,0.033,5.414-0.309
		c0.697-0.137,1.387-0.301,2.075-0.478c1.194,2.879,2.44,5.724,3.676,8.543l0.579,1.323c3.452,7.849,8.509,15.821,15.459,24.369
		c8.941,11.007,19.734,21.27,33.967,32.3c8.156,6.314,17.394,12.218,29.071,18.582c15.097,8.23,31.191,12.474,49.199,12.974
		c1.272,0.035,2.545,0.079,3.814,0.119c3.022,0.102,6.146,0.206,9.235,0.206c7.201,0,12.725-0.581,17.921-1.881
		c2.455-0.62,5.243-1.323,7.954-1.938c12.584-2.835,24.179-7.738,34.47-14.579c3.952-2.629,7.774-5.501,11.474-8.276
		c2.468-1.854,5.018-3.77,7.566-5.581c11.709-8.325,22.384-19.193,33.593-34.199c6.288-8.422,11.426-17.369,15.652-25.732
		c2.767,0.464,5.553,0.789,8.405,0.607c2.46-0.155,4.922-0.274,7.373-0.521c3.068-0.312,6.045-1.067,8.596-2.711
		c2.148-1.384,4.336-2.834,6.08-4.615c2.888-2.951,5.442-6.176,5.938-10.377c0.14-1.202,0.468-2.383,0.665-3.383
		c1.244-0.473,2.2-0.951,3.223-1.202c4.834-1.195,8.345-4.06,11.31-7.622c0.965-1.153,1.932-2.322,2.723-3.578
		c1.935-3.064,3.701-6.292,3.82-9.875c0.118-3.659,0.497-7.398-0.968-10.983c-0.437-1.071,0.107-1.948,0.96-2.883
		c1.798-1.958,3.598-4.006,4.839-6.282c1.17-2.153,1.642-4.639,2.399-6.986c0.519-1.62,1.056-3.225,0.525-4.963
		c-0.586-1.911-1.06-3.849-1.576-5.741c0.81-2.048,1.644-3.89,2.248-5.794C477.917,264.667,478.647,262.572,478.806,260.458z
		 M188.16,245.188c-3.776-3.399-3.484-8.271-5.234-12.397c-1.082-2.506,0.607-4.379,3.213-4.084
		c3.738,0.434,6.137-1.203,8.447-3.458c0.58-0.567,1.351-0.969,2.173-1.545c1.708,1.146,1.505,2.671,1.334,4.121
		c-0.298,2.588-0.649,5.177-1.049,7.743c-0.293,1.858,0.291,3.184,2.167,4.031c2.516,1.14,4.944,2.646,7.921,1.855
		c2.353-0.627,4.331-1.723,4.711-4.333c0.171-1.208,0.651-2.387,0.846-3.601c0.336-2.162,1.269-3.468,3.627-4.58
		c2.401-1.135,4.25-3.238,7.321-3.088c0.574,0.031,1.279-0.335,1.725-0.125c3.728,1.661,4.96-0.144,6.779-3.016
		c1.492-2.35,1.666-3.432-0.995-4.865c0.813-0.784,1.425-1.321,1.968-1.907c0.953-1.035,0.676-1.749-0.408-2.726
		c-3.7-3.357-2.505-8.213,2.341-9.652c0.879-0.257,2.02-0.032,2.948,0.24c2.939,0.853,5.833,1.863,8.781,2.746
		c0.959,0.292,1.999,0.498,3.011,0.549c3.624,0.178,3.878-0.637,2.739-3.806c-0.961-2.66-3.033-4.312-4.765-6.294
		c-1.265-1.462-2.728-2.651-3.394-4.614c-0.727-2.158-3.608-2.957-5.845-1.913c-1.035,0.481-1.929,1.242-2.875,1.881
		c-3.586,2.433-7.915,2.323-11.186-0.499c-1.767-1.518-3.578-2.383-5.954-1.659c-2.341,0.721-3.499,0.119-3.868-2.298
		c-0.241-1.565-0.982-3.174-1.936-4.497c-1.078-1.503-2.344-1.312-3.364,0.306c-0.666,1.057-1.132,2.222-1.717,3.325
		c-1.13,2.132-3.151,2.277-4.584,0.322c-0.317-0.43-0.578-1.008-0.58-1.516c-0.036-4.209-3.69-5.327-6.807-6.661
		c-3.157-1.337-6.152,0.599-6.571,3.879c-0.016,0.136,0,0.285-0.046,0.41c-0.984,2.42,2.495,4.977-0.212,7.338
		c-1.902,1.654-3.763,3.368-5.812,4.856c-0.787,0.572-2.053,0.845-3.057,0.788c-0.954-0.066-1.873-0.739-2.783-1.166
		c-3.1-1.502-3.167-1.502-5.616,0.861c-1.101,1.062-2.227,2.929-3.89,1.707c-1.569-1.148-0.009-2.82,0.815-3.933
		c6.281-8.606,12.817-17.024,21.103-24.123c4.435-3.792,8.681-7.792,13.177-11.522c1.841-1.524,4.028-2.763,6.222-3.825
		c3.774-1.832,6.04-1.075,7.914,2.452c0.904,1.702,2.228,2.491,4.261,2.106c1.146-0.213,2.265-0.557,3.411-0.799
		c3.082-0.642,4.655-0.03,6.313,2.401c0.556,0.808,1.16,1.598,1.576,2.472c0.817,1.744,2.213,2.479,4.198,2.309
		c2.309-0.182,4.211,0.556,6.188,1.692c4.705,2.715,8.483,2.156,12.689-1.442c2.314-1.983,4.755-2.187,7.018-0.019
		c1.733,1.66,3.5,2.21,5.86,2.146c1.38-0.029,2.782,0.566,4.162,0.918c2.087,0.547,4.126,1.281,6.249,1.679
		c2.26,0.425,4.037-0.104,5.68-2.05c2.229-2.641,3.881-2.381,6.306,0.11c0.672,0.693,1.443,1.489,2.346,1.782
		c4.438,1.435,8.91,1.702,13.202-0.474c1.857-0.925,3.393-2.103,2.923-4.517c-0.356-1.811,1.004-2.527,2.667-3.225
		c2.021-0.835,3.815-2.118,6.389-3.602c0.17,0.083,1.156,0.599,2.179,1.005c2.014,0.786,4.011,1.687,6.108,2.244
		c2.06,0.546,3.741-0.272,4.762-2.082c0.411-0.724,0.69-1.514,1.123-2.217c2.378-3.796,4.169-4.278,8.17-1.99
		c11.054,6.31,21.931,12.899,30.628,22.01c3.397,3.568,6.229,7.606,9.203,11.513c0.946,1.237,1.32,2.594-1.182,2.849
		c-0.639,0.066-1.592,0.471-1.762,0.934c-1.116,2.883-3.507,3.463-6.429,3.904c-1.709,0.256-3.435,1.478-4.734,2.676
		c-2.411,2.228-2.406,3.314-0.832,6.196c1.849,3.355,1.497,3.929-2.562,4.135c-0.741,0.042-1.485-0.09-2.202,0.006
		c-3.297,0.436-4.415,2.488-2.873,5.279c0.399,0.727,1.125,1.338,1.359,2.101c0.323,1.089,0.759,2.427,0.333,3.342
		c-0.305,0.659-1.963,1.17-2.953,1.087c-2.474-0.201-4.98-0.542-7.335-1.23c-4.551-1.327-8.252,0.787-8.597,5.264
		c-0.167,2.161-0.062,4.333-0.074,6.884c-3.223-0.74-5.607,0.024-8.03,1.984c-3.155,2.568-6.482,1.157-7.492-2.678
		c-0.897-3.463-0.785-3.821,2.051-5.513c-0.067,0.98-0.071,1.754-0.169,2.513c-0.205,1.497,0.118,3.128,1.736,3.315
		c1.365,0.171,3.271-0.418,4.26-1.317c1.051-0.964,1.642-2.639,1.823-4.066c0.285-2.334,1.206-4.113,3.127-5.634
		c1.083-0.852,1.911-2.066,2.615-3.25c1.728-2.891,1.188-4.966-1.214-7.342c-1.669-1.656-3.257-3.494-4.415-5.478
		c-2.204-3.734-4.736-4.889-9.695-3.898c-0.021,0.257-0.133,0.689-0.023,0.742c4.773,2.3,8.224,5.986,11.844,9.534
		c3.061,2.974,2.305,6.867-1.728,8.569c-1.479,0.625-2.783,1.63-4.415,2.617c0.156-2.302,0.881-4.317,2.576-6.133
		c1.872-1.984,1.17-4.421-1.648-4.677c-3.229-0.306-4.192-1.862-4.723-4.398c-0.209-0.98-0.937-1.979-1.704-2.717
		c-2.183-2.073-2.655-3.203-1.353-5.637c1.083-2.034,2.52-3.896,3.924-6.028c-2.366-0.785-3.508,0.447-4.476,1.813
		c-0.891,1.252-1.516,2.672-2.411,3.916c-0.625,0.866-1.448,2.095-2.341,2.217c-3.021,0.434-3.499,2.42-4.181,4.614
		c-0.372,1.176-1.281,2.446-2.332,3.151c-3.401,2.247-4.183,3.405-3.295,7.139c0.412,1.744,0.742,3.09-1.204,4.273
		c-1.453,0.886-2.49,1.104-4.341,0.563c-1.642-0.47-4.144,0.152-5.678,1.104c-1.609,1.023-0.798,3.019,0.027,4.503
		c1.453,2.628,1.69,4.8-1.562,6.56c-1.987,1.08-1.432,3.052-1.066,4.845c0.292,1.44,0.748,2.995,0.443,4.36
		c-0.391,1.731-0.111,4.397-3.511,4.017c-2.104,3.338-5.503,4.483-9.382,4.814c-0.137,0.012-0.264,0.127-0.374,0.207
		c-2.688,1.623-3.928,2.365-5.617,2.743c-2.188-3.873-4.878-7.398-8.375-10.335c-1.338-1.123-3.051-1.874-4.312-3.053
		c-3.289-3.069-7.503-4.597-11.589-6.355c-1.185-0.51-2.406-1.156-3.665-1.281c-5.808-0.581-11.481-1.097-17.273,1.141
		c-4.099,1.584-8.103,3.107-11.673,5.565c-2.645,1.822-5.398,3.494-7.342,6.068c-1.059,1.403-2.36,2.648-3.502,3.915
		c-6.403-2.264-12.654-2.963-18.996-0.156c-0.225-0.467-0.459-0.926-0.699-1.379C189.391,246.873,189.047,245.982,188.16,245.188z
		 M305.522,141.779c9.237,1.867,17.805,5.528,26.304,9.261c0.785,0.345,1.509,0.795,2.196,1.153
		c-1.381,2.242-2.664,4.326-3.947,6.426c-0.983,1.617-2.6,1.833-4.202,1.256c-1.883-0.676-3.725-1.583-5.438-2.596
		c-3.377-1.979-3.226-1.963-5.318,0.881c-0.748,1.011-2.062,1.897-3.306,2.299c-3.899,1.249-4.253,1.315-4.306,5.03
		c-0.028,2.06-1.156,3.4-2.852,3.584c-3.134,0.358-6.382,0.317-9.512-0.038c-1.167-0.14-2.524-1.448-3.147-2.547
		c-1.202-2.119-2.884-2.136-4.818-1.475c-1.359,0.468-2.708,1.101-3.854,1.896c-3.35,2.351-5.781,2.712-9.123,0.617
		c-2.018-1.274-3.752-2.338-6.417-1.575c-0.88,0.249-2.366-0.759-3.347-1.474c-4.139-2.977-6.596-2.943-10.432,0.327
		c-2.979,2.527-6.596,2.97-10.049,0.912c-2.275-1.352-4.362-2.59-7.313-2.262c-0.848,0.098-2.166-1.184-2.812-2.111
		c-3.665-5.306-4.775-5.785-11.53-4.151c-2.079,0.507-3.337,0.164-3.942-1.98c-0.382-1.378-1.327-2.614-2.254-4.347
		c10.261-5.146,21.024-8.842,32.628-10.548c10.045-1.476,20.157-1.771,30.282-2.119
		C288.119,137.891,296.794,140.016,305.522,141.779z M344.146,240.333c-0.195,2.279-0.621,4.58-1.274,6.79
		c-0.47,1.548-3.341,2.304-4.843,1.471c-1.588-0.875-0.902-2.12-0.365-3.218c1.327-2.677,2.723-5.307,4.09-7.958
		c0.43,0.025,0.862,0.058,1.295,0.093C343.439,238.445,344.23,239.427,344.146,240.333z M308.398,237.093
		c-2.816-3.433-2.36-6.716-2.823-10.455C308.087,228.731,309.256,233.275,308.398,237.093z M212.912,387.112
		c0.574,3.364,1.958,6.271,4.745,8.594c1.899,1.583,3.521,3.437,5.827,4.604c1.125,0.567,1.967,1.66,3.118,2.14
		c3.471,1.462,7.075,2.329,10.989,2.125c2.402-0.123,4.754-0.274,6.974-1.114c2.527-0.955,4.975-2.088,7.475-3.099
		c2.585-1.047,4.42-3.023,6.608-4.56c0.501-0.349,0.896-0.902,1.174-1.438c0.87-1.66,1.747-3.327,2.448-5.052
		c0.614-1.5,1.153-3.058,1.435-4.635c0.386-2.183,0.482-4.41,0.745-6.609c0.044-0.356,0.29-0.693,0.489-1.146
		c2.179,0.514,4.201,0.534,6.113,0.217c-0.545,1.665-1.029,3.363-1.084,5.05c-0.003,0.104,0.001,0.206,0.001,0.31
		c-0.007,3.856,2.306,6.576,6.298,7.483c3.263,0.763,5.128,2.305,5.528,5.411c0.716,5.626,8.936,6.979,12.79,3.76
		c1.39-1.148,2.198-2.353,2.26-4.055c0.002-0.047,0.009-0.09,0.01-0.138c0.003-0.403,0.004-0.808,0.011-1.21
		c0.043-2.598,0.324-5.121,2.879-7.01c0.547-0.416,0.661-1.474,0.852-2.258c0.82-3.357,0.869-3.659,4.152-3.117
		c5.775,0.937,8.203-1.891,9.661-6.639c0.276-0.882,0.401-1.82,0.47-2.747c2.114,0.843,4.229,1.688,6.344,2.526
		c0.023,0.07,0.047,0.14,0.07,0.21c0.024,0.071,0.048,0.142,0.071,0.213c0.035,0.103,0.068,0.205,0.103,0.308
		c0.028,0.087,0.057,0.174,0.084,0.26c0.029,0.091,0.057,0.182,0.085,0.272c0.027,0.089,0.055,0.178,0.081,0.267
		c0.026,0.091,0.051,0.181,0.076,0.271c0.023,0.086,0.048,0.173,0.07,0.259c0.022,0.091,0.042,0.18,0.063,0.27
		c0.02,0.087,0.041,0.174,0.059,0.26c0.018,0.088,0.031,0.175,0.046,0.262c0.016,0.087,0.032,0.174,0.044,0.261
		c0.013,0.087,0.02,0.173,0.028,0.26c0.009,0.086,0.02,0.172,0.025,0.258c0.005,0.086,0.004,0.172,0.006,0.257
		s0.005,0.171,0.003,0.255c-0.003,0.085-0.013,0.17-0.019,0.254c-0.007,0.084-0.012,0.169-0.022,0.253
		c-0.012,0.084-0.031,0.168-0.048,0.251c-0.016,0.083-0.028,0.166-0.05,0.248c-0.022,0.085-0.054,0.169-0.081,0.254
		c-0.026,0.08-0.048,0.16-0.079,0.239c-0.034,0.085-0.078,0.169-0.118,0.253c-0.037,0.078-0.069,0.156-0.112,0.233
		c-0.047,0.085-0.105,0.169-0.16,0.253c-0.048,0.075-0.091,0.15-0.145,0.226c-0.063,0.086-0.14,0.171-0.211,0.257
		c-0.059,0.07-0.111,0.143-0.177,0.214c-0.087,0.094-0.19,0.187-0.288,0.28c-0.063,0.061-0.119,0.121-0.188,0.181
		c-0.174,0.152-0.363,0.304-0.57,0.453c-1.669,1.202-1.066,2.746,0.481,3.731c1.047,0.677,2.325,1.035,3.888,1.697
		c1.123-0.399,2.423-0.902,3.734-1.322c1.327-0.412,2.72-1.151,4.008-1.023c4.27,0.411,5.532-1.219,4.832-5.144
		c-0.507-2.813-0.19-4.976,2.142-7.017c0.209-0.185,0.384-0.359,0.543-0.531c0.061-0.063,0.124-0.129,0.178-0.191
		c0.109-0.126,0.197-0.248,0.281-0.369c0.072-0.105,0.137-0.209,0.191-0.312c0.234-0.124,0.479-0.235,0.708-0.366
		c1.899-1.079,3.315-2.893,4.974-4.403c2.457,1.644,4.936,2.804,7.831,3.467c3.947,0.904,7.747,1.93,11.876,1.004
		c4.085-0.911,8.193-1.653,11.521-4.315c0.6-0.481,1.45-0.692,2.076-0.981c2.043-2.139,4.038-4.227,6.023-6.306
		c2.768-0.073,5.378-0.472,7.841-1.217c-3.527,5.773-7.384,11.35-11.512,16.786c-6.727,8.835-14.441,16.826-23.098,24.021
		c-2.831,2.359-5.729,4.636-8.491,7.065c-2.794,2.472-5.975,3.888-9.776,3.095c-0.278-0.059-0.548-0.084-0.819-0.119
		c-3.257-0.427-6.034,0.721-8.562,2.384c-2.928,1.935-5.132,1.544-7.703-0.609c-3.141-2.627-7.084-2.246-9.244,1.135
		c-2.276,3.558-5.568,3.857-9.01,3.351c-2.797-0.404-5.088-0.407-7.213,1.516c-1.39,1.249-2.982,1.212-4.859,0.74
		c-3.534-0.884-6.88-1.584-9.137-4.864c-1.467-2.16-4.576-1.884-7.445-0.104c-1.317,0.809-2.632,1.718-4.074,2.275
		c-4.057,1.562-8.025,2.074-11.834-0.83c-1.026-0.785-2.703-0.901-4.108-1.125c-2.139-0.332-4.398-0.214-6.463-0.753
		c-4.397-1.184-8.032-0.601-11.648,2.344c-2.639,2.144-6.314,1.692-8.997-0.045c-2.712-1.738-4.75-1.093-6.595,0.591
		c-0.59,0.537-1.147,0.873-1.695,1.054c-1.052,0.348-2.071,0.087-3.225-0.675c-2.242-1.497-4.535-2.906-6.722-4.462
		c-4.623-3.271-9.247-6.547-13.755-9.965c-1.02-0.76-1.68-1.944-2.437-2.998c-0.088-0.123-0.172-0.251-0.263-0.369
		c1.329-0.676,2.58-1.62,4.007-1.969c3.835-0.949,6.625-3.367,9.419-5.733c0.725-0.611,1.182-1.373,1.284-2.181
		c0.08-0.631-0.053-1.29-0.481-1.933c-0.382-0.575-0.554-1.096-0.591-1.593c-0.074-0.987,0.418-1.876,1.11-2.876
		c0.904-1.312,1.451-2.265,1.579-3.045c0.216-1.314-0.759-2.134-3.233-3.335c-1.77-0.857-2.528-2-2.894-3.409
		c4.256-0.179,8.39-0.932,12.336-2.585c0.22-0.094,0.54,0.022,1.11,0.062c-0.636,0.842-1.094,1.448-1.359,1.8
		c-0.125,0.928,0.009,1.723-0.351,2.201c-0.646,0.86-0.946,1.818-1.414,2.734C213.106,379.865,212.27,383.351,212.912,387.112z
		 M340.007,413.271c-32.572,24.554-87.489,24.213-116.941,5.101c-0.082-0.053-0.169-0.101-0.25-0.154
		c2.36-3.297,2.295-3.177,5.544-1.505c3.81,1.96,7.913,2.268,11.453-0.362c2.898-2.155,5.686-2.598,9.252-1.985
		c4.984,0.862,9.875,1.45,14.518,3.78c3.933,1.965,7.859-0.352,11.55-1.911c0.786-0.333,1.408-0.975,2.17-1.358
		c3.033-1.518,4.063-1.386,6.214,1.263c3.115,3.83,7.803,3.676,12.148,4.437c0.377,0.065,0.977-0.077,1.223-0.33
		c2.686-2.886,6.132-2.251,9.607-2.162c3.312,0.083,6.482-0.365,8.431-3.842c1.438-2.562,4.773-3.024,7.08-0.987
		c3.45,3.026,6.383,2.568,10.116,0.467c2.221-1.258,5.006-3.181,8.262-0.723C340.262,413.092,340.131,413.178,340.007,413.271z
		 M468.476,258.244c-0.402,1.286-1.128,2.299-2.212,3.091c-1.762,1.286-3.562,2.095-6.015,2.71c-2.037,0.509-3.743,0.816-5.312,0.95
		c0.309,0.07,0.616,0.136,0.921,0.192c4.262,0.793,6.503,3.624,8.288,6.565c0.507,0.834,1.056,1.666,1.586,2.472
		c0.256,0.387,0.51,0.77,0.754,1.147l0.285,0.44l-0.007,0.514c-0.044,3.411-1.019,6.596-3.066,10.026
		c-2.125,3.558-5.557,5.169-8.584,6.592l-0.54,0.253l-4.191-0.534l-0.478,0.214c0.068,0.32,0.279,0.421,0.752,0.642
		c6.808,3.199,9.911,10.313,7.224,16.555c-1.027,2.386-2.45,4.599-4.115,6.398c-2.458,2.657-5.964,3.467-9.387,3.948l-0.144,0.021
		l-0.188,0.003c-0.094,0-0.18-0.008-0.266-0.015c-0.809,0.21-1.664,0.375-2.644,0.512c-0.426,0.093-0.83,0.146-1.229,0.16
		c-0.626,0.065-1.244,0.116-1.874,0.163c0.181,0.423,0.351,0.865,0.488,1.318l0.223,0.167l0.079,0.735
		c0.347,2.876,0.444,6.348-1.472,10.286l-0.123,0.251l-0.2,0.209c-0.43,0.449-0.893,0.968-1.381,1.516
		c-1.286,1.442-2.743,3.076-4.529,4.458c-1.902,1.474-4.871,3.462-8.649,3.738c-3.771,0.274-7.617-0.312-11.406-1.736
		c-1.116-0.424-2.019-1.112-2.816-1.721l-0.128-0.098c-0.979-0.742-1.941-1.519-2.876-2.274l-0.83,0.842l-1.639-3.076
		c-0.035,0.061-0.07,0.119-0.101,0.172c-0.234,0.409-0.527,0.919-0.977,1.365c-0.851,5.92-7.375,9.835-13.295,9.835
		c-2.046,0-3.932-0.453-5.52-1.325c-0.323,0.133-0.65,0.27-0.983,0.407c-0.158,0.315-0.318,0.63-0.481,0.943
		c-0.581,1.135-1.13,2.204-1.539,3.3c-1.083,2.913-3.174,5.269-6.392,7.203c-2.443,1.462-4.711,2.543-6.936,3.306
		c-0.742,0.254-1.542,0.384-2.379,0.384c-1.82,0-3.568-0.616-4.976-1.109c-2.337-0.818-4.139-1.644-5.664-2.599
		c-1.943-1.217-3.694-2.616-5.208-4.167c-0.832-0.855-1.541-1.793-2.211-2.731c-0.791,1.283-1.697,2.536-2.967,3.62
		c-0.195,0.165-0.381,0.285-0.547,0.379c-1.657,1.992-3.395,3.487-5.436,4.685c-3.055,1.788-6.294,2.623-10.193,2.623
		c-0.572,0-1.179-0.019-1.804-0.054c-3.771-0.212-7.271-1.686-11.019-4.634c-0.847-0.667-1.281-1.574-1.63-2.302
		c-0.084-0.179-0.168-0.358-0.259-0.528c-1.96,3.546-5.601,6.196-8.473,7.508c-0.781,0.356-1.63,0.628-2.659,0.854
		c-0.023,0.01-0.049,0.021-0.075,0.032c-1.629,0.889-3.368,1.316-5.328,1.316c-1.682,0-3.29-0.303-5.186-0.758
		c-3.415-0.828-6.264-2.49-9-4.137c-0.409,1.551-1.287,3.09-2.596,4.516c-2.628,2.851-6.443,4.624-9.955,4.624
		c-1.706,0-3.266-0.406-4.64-1.204c-2.37-1.379-4.198-3.393-5.587-6.147c-1.266-1.818-2.555-3.785-3.342-6.085l-0.071,0.021
		l-0.007,0.061c-0.078,0.827-0.158,1.669-0.23,2.509l-0.073,0.818c-0.108,1.186-0.211,2.309-0.206,3.42
		c1.403,5.515,1.036,11.921-1.092,19.045c-0.916,3.062-2.265,6.382-5.301,8.263l-0.038,0.436l-0.987,0.455
		c-4.659,2.137-8.639,3.132-12.527,3.132c-1.222,0-2.457-0.102-3.667-0.302l-0.38-0.062l-0.326-0.193
		c-0.308-0.184-0.627-0.365-0.954-0.549c-0.778-0.444-1.583-0.902-2.375-1.443c-1.874-1.279-2.935-3.021-3.243-5.318
		c-0.475-3.56,0.844-6.498,2.121-9.337c0.223-0.495,0.446-0.988,0.658-1.488c0.164-0.386,0.36-0.741,0.535-1.056
		c0.2-0.357,0.388-0.697,0.455-0.96c0.592-2.337,1.911-4.16,3.188-5.922c0.428-0.591,0.833-1.148,1.206-1.721
		c2.967-4.546,4.055-8.269,3.527-12.072c-0.069-0.483-0.173-0.983-0.276-1.448c-0.046-0.221-0.098-0.428-0.154-0.651
		c-0.417-0.218-0.87-0.467-1.312-0.795c-0.32-0.239-0.483-0.239-0.555-0.239c-0.135,0-0.381,0.039-0.796,0.239
		c-0.798,0.384-1.625,0.709-2.498,1.051c-0.265,0.104-0.541,0.212-0.829,0.328c-1.987,2.27-4.864,3.495-7.651,4.681
		c-0.339,0.144-0.681,0.29-1.018,0.437c-0.468,0.202-0.929,0.335-1.335,0.456c-0.382,0.109-0.744,0.216-0.983,0.342
		c-1.61,0.855-3.314,1.098-4.816,1.312c-0.372,0.054-0.743,0.104-1.109,0.167c-2.416,0.414-4.996,0.814-7.61,0.814
		c-2.766,0-5.245-0.451-7.574-1.382c-0.481-0.19-0.968-0.374-1.458-0.56c-2.318-0.884-4.714-1.795-6.698-3.379
		c-0.701-0.558-1.449-1.081-2.24-1.637c-2.274-1.591-4.625-3.239-6.175-5.934c-1.235-2.148-2.092-4.513-2.699-7.442
		c-0.011-0.061-0.024-0.114-0.035-0.163c-0.15,0.126-0.296,0.251-0.436,0.377c-1.769,1.608-3.938,2.258-5.852,2.832
		c-0.923,0.274-1.796,0.537-2.584,0.883c-0.414,0.187-0.889,0.279-1.41,0.279c-0.538,0-1.051-0.1-1.462-0.179
		c-0.092-0.017-0.181-0.035-0.269-0.049c-0.384-0.07-0.763-0.13-1.14-0.19c-1.815-0.293-3.872-0.626-5.799-1.726
		c-2.081-1.188-3.357-2.83-4.018-5.171c-0.665-2.354-1.433-4.652-2.246-7.089c-0.122-0.365-0.244-0.732-0.367-1.098
		c-1.49,1.104-3.124,1.855-4.712,2.588c-1.062,0.49-2.066,0.953-2.99,1.502c-1.868,1.108-3.899,1.428-5.692,1.711
		c-0.619,0.101-1.203,0.19-1.771,0.312c-0.577,0.123-1.179,0.123-1.697-0.014c-0.959-0.244-1.93-0.488-2.902-0.73
		c-2.637-0.66-5.361-1.344-8.027-2.12c-3.019-0.879-5.53-2.867-7.68-6.071c-2.703-4.018-3.896-7.926-3.647-11.948
		c0.051-0.807,0.092-1.616,0.133-2.423c0.09-1.837,0.186-3.731,0.403-5.612c0.299-2.571,1.572-4.632,2.8-6.624
		c0.417-0.68,0.813-1.318,1.165-1.97c0.481-0.891,0.925-1.809,1.383-2.778c-0.636-0.107-1.274-0.202-1.902-0.3
		c-4.898-0.749-9.962-1.523-13.797-5.957l-0.235-0.27l-0.109-0.335c-0.087-0.266-0.186-0.549-0.291-0.849
		c-0.266-0.765-0.57-1.635-0.806-2.545c-0.623-2.412-0.071-4.685,1.557-6.398c0.365-0.386,0.73-0.773,1.095-1.16
		c1.985-2.111,4.039-4.293,6.383-6.188c2.088-1.687,4.421-3.261,7.367-3.536l1.068-1.599c-0.243-0.018-0.523-0.046-0.82-0.111
		c-5.149-1.123-7.436-4.783-9.335-8.437c-1.224-2.354-1.436-4.785-1.641-7.137c-0.025-0.285-0.05-0.569-0.075-0.854
		c-0.092-0.968,0.107-2.066,0.591-3.258c1.125-2.792,2.754-5.935,6.296-8.024c3.391-2.001,7.237-4.268,11.905-4.911
		c0.2-0.028,0.578-0.227,0.853-0.372c0.234-0.123,0.451-0.235,0.647-0.32l0.625-0.269l7.013,1.656l0.017,1.603
		c0.009,0.312,0.021,0.738-0.009,1.193c-0.022,0.342-0.128,0.618-0.221,0.816c0.077,2.655,0.164,5.465,0.293,8.288l0.006,0.13
		c0.083,1.877,0.171,3.818,0.378,5.687c0.125,1.122,0.365,2.243,0.618,3.43c0.062,0.29,0.124,0.578,0.184,0.867
		c0.017,0.085,0.09,0.264,0.148,0.407c0.194,0.48,0.46,1.14,0.364,1.921c-0.072,0.584,0.04,1.114,0.288,1.684
		c0.085-0.839,0.271-1.74,0.723-2.599c0.421-1.374,1.207-2.643,2.392-3.861c0.593-1.646,1.753-3.052,3.615-4.39
		c0.522-0.378,1.029-0.826,1.564-1.3c0.822-0.728,1.671-1.479,2.711-2.093c3.085-1.823,6.515-2.479,10.628-2.021
		c3.843,0.429,6.946,2.004,9.945,3.528c0.716,0.363,1.456,0.738,2.182,1.084c0.979,0.469,1.702,1.175,2.334,1.825
		c0.85,0.542,1.636,1.232,2.341,2.058l0.042,0.031l0.572,0.316l0.362,0.955c0.922,1.388,1.712,3.085,2.413,5.173
		c1.733,2.625,3.446,5.588,4.172,8.713c2.372-2.672,5.692-4.148,9.895-4.392c0.625-0.036,1.299-0.052,2.122-0.052
		c0.436,0,0.872,0.004,1.308,0.009l0.414,0.003c6.449,0.058,10.621,3.19,12.753,9.577c0.343,1.026,0.573,2.064,0.796,3.068
		c0.007,0.037,0.015,0.072,0.023,0.109c0.024,0.002,0.048,0.005,0.072,0.007c0.074-0.077,0.147-0.152,0.221-0.228
		c0.643-0.66,1.307-1.344,2.009-1.993c0.839-0.773,1.194-1.877,1.604-3.156c0.141-0.438,0.286-0.892,0.458-1.344
		c1.453-3.839,3.458-8.247,7.303-11.852c0.658-0.617,1.267-1.303,1.914-2.03c0.718-0.811,1.462-1.647,2.313-2.426
		c2.283-2.086,4.61-3.631,7.118-4.722c2.217-0.964,4.576-1.453,7.01-1.453c1.574,0,3.174,0.193,4.891,0.59
		c4.071,0.947,7.942,2.894,11.504,5.787c3.456,2.805,6.904,6.008,8.699,10.414c1.145,2.799,2.146,5.681,3.114,8.469l0.178,0.51
		c0.472,1.356,1.001,2.973,1.333,4.657c0.86,4.381,1.341,9.056,1.425,13.895c0.005,0.242-0.013,0.472-0.042,0.695l0.839-0.488
		c0.015-0.197,0.019-0.402-0.006-0.581c-0.704-5.018,0.379-9.089,3.311-12.449l0.107-0.122c1.924-2.21,4.104-4.713,7.399-5.931
		l0.226-0.084l0.242-0.029c0.36-0.043,0.725-0.106,1.113-0.172c0.771-0.132,1.571-0.27,2.423-0.27c0.221,0,0.439,0.009,0.646,0.028
		c0.192,0.016,0.388,0.033,0.583,0.048c1.768,0.139,3.967,0.314,5.851,1.91c0.753,0.64,1.681,1.181,2.662,1.755
		c0.414,0.243,0.83,0.487,1.236,0.738c2.007,1.247,3.511,2.879,4.595,4.993c0.788,1.536,1.571,2.605,2.908,3.066
		c1-0.373,1.803-1.039,2.493-2.068c2.248-3.353,5.122-5.639,8.535-6.791c1.893-0.641,3.871-0.803,5.785-0.959
		c0.462-0.039,0.925-0.076,1.383-0.122c0.187-0.019,0.389-0.028,0.591-0.028c0.637,0,1.237,0.093,1.813,0.183
		c0.293,0.045,0.596,0.093,0.914,0.127l0.43,0.046l0.372,0.214c0.628,0.363,1.291,0.714,1.993,1.086
		c1.723,0.914,3.506,1.859,5.094,3.146c1.475,1.197,2.62,2.638,3.728,4.03c0.509,0.643,0.99,1.249,1.499,1.826
		c0.026,0.029,0.052,0.059,0.077,0.087l1.467-2.47c0.237-2.898,1.028-6.965,3.367-10.63c0.773-1.211,1.641-2.477,2.644-3.705
		c-0.043-0.121-0.086-0.246-0.133-0.35c0.584-1.534,0.66-2.461,1.197-3.007c0.761-0.764,2.027-1.146,2.599-0.232
		c0.699-0.537,1.437-1.047,2.247-1.497c1.369-0.763,2.953-1.024,4.455-1.226c6.352-0.861,12.118,0.943,17.017,5.336
		c0.296,0.259,0.749,0.661,1.03,1.245c0.312,0.643,0.712,1.273,1.137,1.94c0.961,1.513,2.049,3.226,2.249,5.456
		c0.023,0.077,0.113,0.208,0.237,0.364c0.021-0.039,0.039-0.078,0.058-0.118c0.214-0.457,0.433-0.903,0.653-1.347
		c0.688-1.396,1.339-2.715,1.702-4.172c1.102-4.407,2.551-9.026,5.643-12.969c1.01-1.284,2.279-2.281,3.507-3.245
		c0.355-0.279,0.711-0.558,1.058-0.842c3.383-2.786,7.317-3.494,11.086-3.815c1.778-0.5,3.66-0.752,5.592-0.752
		c3.504,0,7.082,0.854,10.298,2.397c-0.902-0.955-1.977-1.754-3.246-2.427l-1.142-0.606l0.177-1.21
		c0.633-4.273,0.263-8.804-1.12-13.848l-0.274-0.997l0.778-0.728c0.547-0.509,1.072-0.995,1.586-1.468
		c1.025-0.944,1.99-1.837,2.918-2.744c2.699-2.647,6.141-3.263,9.156-3.632c0.609-0.076,1.237-0.114,1.869-0.114
		c2.009,0,3.853,0.379,5.634,0.745c0.374,0.077,0.751,0.154,1.132,0.229c1.995,0.388,3.581,1.206,5.115,1.996
		c0.87,0.446,1.688,0.868,2.535,1.184c0.95,0.355,1.679,1.205,2.169,2.525c0.253,0.682,0.377,1.362,0.495,2.018
		c0.049,0.273,0.1,0.556,0.163,0.852l0.14,0.649l-0.345,0.58c-0.298,0.496-0.606,1.003-0.918,1.517
		c-0.714,1.175-1.456,2.39-2.121,3.618c-0.199,0.365-0.297,0.581-0.274,0.759c0.872-0.364,1.772-0.738,2.732-1.047
		c1.558-0.505,2.96-0.749,4.285-0.749c2.206,0,4.216,0.695,5.971,2.068c0.27,0.211,0.8,0.396,1.411,0.611
		c0.396,0.137,0.842,0.293,1.312,0.49l0.374,0.156l0.444,0.458c2.121,2.187,4.522,4.665,5.908,7.921l0.167,0.388
		c0.382,0.896,0.744,1.748,1.142,2.593c0.461,0.501,0.754,1.133,0.854,1.839C469.523,255.103,469.392,256.772,468.476,258.244z"/>
	<path fill="#FFFFFF" d="M426.747,277.3l0.354-0.741c0.386-0.808,0.079-1.331-0.828-2.512c-0.113-0.15-0.228-0.297-0.332-0.443
		c-2.312-1.423-4.734-2.03-7.508-1.878c0.158,0.053,0.312,0.105,0.465,0.158c3.374,1.158,5.543,2.675,6.45,4.511
		c1.069,2.165,1.157,4.203,0.692,6.077c0.928-1.318,1.586-2.51,1.686-3.153c-0.177-0.365-0.386-0.8-0.62-1.28L426.747,277.3z"/>
	<path fill="#FFFFFF" d="M410.965,305.188c0.96,0.628,1.716,1.421,2.225,2.351c0.8,1.463,0.979,3.297,0.637,5.085
		c1.426-1.302,1.514-2.694,1.375-3.797C414.924,306.606,413.501,305.386,410.965,305.188z"/>
	<path fill="#FFFFFF" d="M54.344,230.549c4.579-0.177,8.899-1.156,12.961-2.94c4.062-1.783,7.707-4.301,10.935-7.553
		c3.229-3.253,5.705-7.091,7.43-11.519c1.748-4.481,2.533-9.014,2.356-13.592c-0.177-4.581-1.155-8.899-2.94-12.962
		c-1.783-4.061-4.301-7.707-7.553-10.935c-3.253-3.229-7.12-5.715-11.604-7.464c-4.426-1.725-8.942-2.504-13.551-2.34
		c-4.606,0.166-8.941,1.142-13.003,2.924c-4.062,1.784-7.708,4.301-10.936,7.554c-3.228,3.252-5.716,7.121-7.463,11.604
		c-1.724,4.426-2.498,8.928-2.323,13.508c0.177,4.579,1.157,8.9,2.94,12.961c1.785,4.063,4.315,7.712,7.596,10.952
		c3.282,3.239,7.134,5.721,11.56,7.446C45.234,229.939,49.765,230.726,54.344,230.549z M32.917,204.515
		c-1.211-2.592-1.919-5.348-2.123-8.264c-0.204-2.916,0.246-5.791,1.351-8.623c1.104-2.83,2.717-5.251,4.84-7.261
		c2.124-2.01,4.509-3.56,7.155-4.648c2.647-1.089,5.471-1.667,8.473-1.738c3.001-0.068,5.893,0.438,8.672,1.521
		c2.839,1.106,5.323,2.696,7.458,4.766c2.134,2.072,3.822,4.409,5.062,7.013c1.242,2.603,1.963,5.364,2.166,8.279
		c0.205,2.917-0.247,5.792-1.35,8.623c-1.103,2.832-2.717,5.254-4.841,7.263c-2.123,2.01-4.522,3.554-7.197,4.631
		c-2.676,1.078-5.5,1.657-8.472,1.737c-2.973,0.082-5.877-0.431-8.716-1.538c-2.78-1.083-5.251-2.666-7.416-4.748
		C35.817,209.444,34.129,207.107,32.917,204.515z"/>
	<path fill="#FFFFFF" d="M103.219,164.872c0.591,0.529,1.272,0.773,2.046,0.73c0.774-0.042,1.425-0.357,1.955-0.946l4.821-5.371
		c0.528-0.589,0.762-1.26,0.7-2.011c-0.063-0.751-0.388-1.392-0.978-1.92l-10.607-9.519c-0.589-0.528-0.906-1.18-0.946-1.954
		c-0.043-0.774,0.201-1.456,0.73-2.045l8.054-8.976c2.806-3.127,4.875-6.344,6.207-9.651c1.29-3.261,1.855-6.354,1.697-9.278
		c-0.117-2.969-0.853-5.797-2.206-8.485c-1.352-2.687-3.253-5.129-5.7-7.325c-2.403-2.156-5.122-3.777-8.156-4.864
		c-1.49-0.436-2.985-0.777-4.487-1.02c-1.501-0.242-3.002-0.3-4.505-0.176c-3.011,0.164-5.948,0.883-8.811,2.159
		c-2.9,1.409-5.428,3.313-7.584,5.715l-18,20.059c-0.529,0.589-0.772,1.272-0.73,2.045c0.042,0.774,0.359,1.426,0.947,1.954
		L103.219,164.872z M74.421,118.038l8.542-9.519c1.382-1.541,2.835-2.612,4.354-3.211c1.602-0.691,3.159-1.012,4.671-0.966
		c1.506-0.037,3.012,0.249,4.509,0.857c1.546,0.651,2.862,1.462,3.95,2.439c1.223,1.099,2.167,2.234,2.835,3.405
		c0.378,0.584,0.692,1.214,0.944,1.889c0.252,0.677,0.439,1.357,0.562,2.041c0.207,1.411,0.068,2.843-0.415,4.292
		c-0.477,1.536-1.327,2.983-2.547,4.343l-9.458,10.539c-0.529,0.59-1.18,0.905-1.954,0.947c-0.774,0.041-1.456-0.201-2.045-0.731
		l-13.734-12.325c-0.589-0.527-0.906-1.18-0.947-1.954C73.649,119.309,73.892,118.629,74.421,118.038z"/>
	<path fill="#FFFFFF" d="M148.15,118.646c0.415,0.674,1,1.101,1.754,1.28c0.753,0.179,1.467,0.062,2.143-0.354l37.108-22.848
		c0.673-0.414,1.101-1,1.281-1.753c0.179-0.754,0.062-1.468-0.354-2.144l-3.065-4.978c-0.415-0.674-1-1.102-1.755-1.281
		c-0.753-0.179-1.468-0.061-2.142,0.354l-26.218,16.141c-0.675,0.417-1.388,0.533-2.143,0.354c-0.753-0.179-1.338-0.605-1.754-1.28
		l-5.269-8.558c-0.414-0.674-0.532-1.389-0.353-2.144c0.18-0.753,0.607-1.338,1.281-1.753l22.716-13.986
		c0.673-0.414,1.101-1,1.28-1.753c0.179-0.755,0.063-1.468-0.354-2.143l-3.113-5.057c-0.415-0.673-1-1.101-1.753-1.28
		c-0.754-0.18-1.469-0.062-2.143,0.352l-22.717,13.986c-0.674,0.417-1.388,0.534-2.143,0.354c-0.754-0.179-1.338-0.605-1.754-1.28
		l-5.795-9.413c-0.415-0.673-0.532-1.389-0.354-2.143c0.179-0.754,0.607-1.339,1.281-1.754l26.216-16.141
		c0.674-0.415,1.101-1,1.281-1.754c0.179-0.754,0.062-1.468-0.354-2.143l-2.969-4.823c-0.416-0.674-1.001-1.102-1.755-1.281
		c-0.753-0.179-1.468-0.061-2.143,0.354l-37.108,22.846c-0.675,0.415-1.102,1-1.281,1.753c-0.179,0.754-0.061,1.471,0.354,2.144
		L148.15,118.646z"/>
	<path fill="#FFFFFF" d="M203.659,86.841c0.208,0.764,0.648,1.338,1.322,1.723c0.672,0.385,1.391,0.474,2.154,0.266l6.965-1.894
		c0.762-0.209,1.323-0.644,1.679-1.31c0.354-0.664,0.43-1.379,0.222-2.144L211.9,68.409c-0.208-0.764-0.12-1.482,0.265-2.155
		c0.386-0.673,0.96-1.114,1.725-1.32l6.787-1.848c0.764-0.207,1.612-0.216,2.548-0.03c0.933,0.188,1.724,0.542,2.372,1.059
		l8.047,6.616c1.367,1.081,2.716,2.149,4.044,3.208c1.33,1.058,2.679,2.129,4.046,3.208c0.63,0.46,1.412,0.784,2.347,0.971
		c0.935,0.188,1.783,0.178,2.548-0.03l8.904-2.421c0.763-0.208,1.16-0.663,1.19-1.366c0.03-0.702-0.278-1.311-0.924-1.831
		c-2.916-2.362-5.713-4.583-8.393-6.665c-2.681-2.079-5.508-4.291-8.483-6.639c-0.63-0.459-0.94-1.023-0.933-1.688
		c0.01-0.665,0.288-1.262,0.84-1.791c2.55-2.46,4.381-5.357,5.495-8.69c1.45-4.182,1.496-8.769,0.137-13.766
		c-0.879-3.232-2.223-6.085-4.032-8.561c-0.898-1.207-1.889-2.293-2.973-3.262c-1.084-0.967-2.261-1.813-3.532-2.542
		c-2.451-1.353-5.188-2.248-8.211-2.69c-3.052-0.306-6.222-0.012-9.512,0.883L189.582,24.3c-0.764,0.208-1.338,0.649-1.724,1.322
		c-0.385,0.672-0.472,1.392-0.266,2.154L203.659,86.841z M203.174,33.196c0.384-0.673,0.958-1.113,1.723-1.322l14.28-3.884
		c2.116-0.576,3.961-0.636,5.539-0.18c1.515,0.472,2.788,1.199,3.812,2.181c0.453,0.508,0.881,1.039,1.285,1.592
		c0.402,0.553,0.751,1.137,1.044,1.752c0.554,1.112,0.978,2.196,1.265,3.254c0.528,1.939,0.665,3.606,0.413,5
		c-0.279,1.529-0.738,2.852-1.381,3.974c-0.641,1.121-1.545,2.094-2.71,2.915c-1.105,0.807-2.189,1.353-3.246,1.64l-14.282,3.885
		c-0.764,0.208-1.482,0.119-2.156-0.266c-0.672-0.385-1.112-0.959-1.319-1.724l-4.533-16.66
		C202.7,34.587,202.79,33.868,203.174,33.196z"/>
	<path fill="#FFFFFF" d="M266.386,73.641l8.292,0.594c0.788,0.057,1.58-0.13,2.375-0.562c0.794-0.432,1.401-0.999,1.817-1.702
		l3.028-5.186c0.354-0.708,0.945-1.275,1.771-1.706c0.824-0.429,1.631-0.616,2.422-0.559l25.878,1.854
		c0.788,0.057,1.546,0.355,2.271,0.896c0.726,0.542,1.246,1.158,1.562,1.852l2.341,5.664c0.252,0.751,0.756,1.397,1.512,1.94
		c0.753,0.543,1.525,0.842,2.315,0.898l8.294,0.594c0.788,0.057,1.339-0.148,1.646-0.615c0.309-0.466,0.302-1.045-0.015-1.741
		l-27.094-65.415c-0.313-0.754-0.896-1.163-1.744-1.224c-0.854-0.061-1.483,0.26-1.901,0.962l-36.145,60.885
		c-0.352,0.647-0.408,1.223-0.169,1.729S265.596,73.584,266.386,73.641z M291.627,51.177l8.275-14.521
		c0.355-0.707,0.776-1.044,1.265-1.008c0.483,0.034,0.854,0.428,1.106,1.178l6.029,15.545c0.256,0.69,0.228,1.284-0.081,1.78
		c-0.312,0.498-0.862,0.717-1.651,0.661l-13.485-0.966c-0.79-0.057-1.32-0.338-1.59-0.846
		C291.226,52.492,291.27,51.884,291.627,51.177z"/>
	<path fill="#FFFFFF" d="M350.727,86.611l6.724,2.36c0.746,0.263,1.472,0.227,2.17-0.109c0.697-0.336,1.179-0.876,1.441-1.624
		l16.526-47.065c0.261-0.746,0.742-1.288,1.441-1.623c0.697-0.337,1.421-0.373,2.167-0.11l12.672,4.449
		c0.749,0.262,1.47,0.226,2.169-0.109c0.7-0.336,1.179-0.876,1.441-1.625l1.877-5.344c0.263-0.747,0.226-1.47-0.109-2.168
		c-0.337-0.699-0.877-1.18-1.623-1.441l-42.842-15.043c-0.746-0.263-1.472-0.225-2.169,0.111c-0.7,0.334-1.182,0.877-1.442,1.624
		l-1.876,5.344c-0.263,0.748-0.226,1.469,0.109,2.169c0.337,0.699,0.877,1.179,1.623,1.442l12.76,4.479
		c0.746,0.262,1.288,0.743,1.623,1.441c0.335,0.699,0.372,1.423,0.109,2.169L348.994,83c-0.263,0.748-0.226,1.469,0.109,2.169
		C349.438,85.868,349.979,86.349,350.727,86.611z"/>
	<path fill="#FFFFFF" d="M388.818,102.78c0.16,0.736,0.578,1.31,1.258,1.718l6.182,3.724c0.68,0.408,1.396,0.52,2.146,0.333
		c0.753-0.186,1.332-0.619,1.741-1.297l31.535-52.355c0.407-0.677,0.519-1.394,0.333-2.146c-0.187-0.752-0.621-1.333-1.298-1.74
		l-6.183-3.725c-0.679-0.409-1.381-0.511-2.106-0.309c-0.728,0.202-1.295,0.644-1.702,1.322l-31.534,52.354
		C388.781,101.337,388.657,102.044,388.818,102.78z"/>
	<path fill="#FFFFFF" d="M425.599,116.709c-0.047,4.435,0.746,8.793,2.381,13.075c1.632,4.28,4.113,8.118,7.436,11.514
		c3.364,3.437,7.173,6.02,11.418,7.744c4.246,1.725,8.585,2.611,13.021,2.659c4.437,0.046,8.796-0.747,13.076-2.381
		c4.283-1.635,8.141-4.134,11.579-7.5c3.395-3.323,5.964-7.117,7.713-11.385c1.746-4.267,2.641-8.618,2.689-13.054
		c0.047-4.435-0.746-8.793-2.378-13.075c-1.638-4.282-4.137-8.141-7.504-11.579c-3.322-3.395-7.105-5.955-11.353-7.68
		c-4.243-1.724-8.587-2.611-13.021-2.658c-4.437-0.046-8.806,0.758-13.109,2.413c-4.304,1.657-8.151,4.146-11.546,7.468
		c-3.438,3.367-6.02,7.171-7.745,11.417C426.531,107.932,425.645,112.273,425.599,116.709z M439.958,108.718
		c1.151-2.743,2.813-5.178,4.989-7.309c2.135-2.087,4.593-3.688,7.383-4.802c2.787-1.113,5.612-1.689,8.475-1.726
		c2.86-0.036,5.662,0.453,8.405,1.467c2.739,1.017,5.176,2.611,7.301,4.783c2.125,2.17,3.667,4.639,4.624,7.401
		c0.956,2.762,1.387,5.574,1.289,8.434c-0.098,2.861-0.732,5.672-1.904,8.436c-1.172,2.764-2.825,5.19-4.957,7.277
		c-2.177,2.132-4.648,3.742-7.415,4.834c-2.765,1.091-5.59,1.667-8.475,1.726c-2.884,0.058-5.697-0.421-8.438-1.437
		c-2.741-1.015-5.175-2.61-7.301-4.781c-2.127-2.171-3.666-4.638-4.624-7.402c-0.958-2.762-1.377-5.585-1.256-8.467
		C438.173,114.271,438.808,111.46,439.958,108.718z"/>
	<path fill="#FFFFFF" d="M549.441,200.707l-2.743-6.576c-0.305-0.731-0.816-1.245-1.532-1.539c-0.717-0.295-1.442-0.29-2.172,0.015
		l-32.04,13.367c-0.729,0.305-1.258,0.31-1.578,0.014c-0.321-0.295-0.347-0.83-0.075-1.602l19.55-51.612
		c0.237-0.692,0.14-1.362-0.293-2.006c-0.435-0.644-1.017-0.812-1.746-0.508l-57.671,24.06c-0.73,0.305-1.244,0.815-1.54,1.534
		c-0.295,0.716-0.3,1.411-0.021,2.086l2.781,6.661c0.304,0.73,0.815,1.244,1.531,1.539c0.717,0.294,1.439,0.29,2.172-0.015
		l31.449-13.122c0.73-0.304,1.256-0.311,1.579-0.014c0.32,0.294,0.372,0.816,0.158,1.566l-18.994,51.283
		c-0.216,0.749-0.106,1.445,0.328,2.09c0.433,0.644,1.016,0.814,1.746,0.508l57.588-24.024c0.729-0.304,1.243-0.816,1.539-1.533
		C549.753,202.161,549.748,201.437,549.441,200.707z"/>
	<path fill="#FFFFFF" d="M101.221,434.525l6.656-0.704c0.824-0.07,1.472-0.394,1.945-0.965c0.47-0.572,0.669-1.27,0.599-2.095
		c-0.165-0.747-0.288-1.444-0.373-2.098c-0.083-0.653-0.188-1.332-0.312-2.029c-0.194-0.966-0.416-1.939-0.671-2.93
		c-0.256-0.988-0.565-1.972-0.929-2.944c-0.411-0.937-0.841-1.874-1.294-2.811c-0.452-0.938-0.97-1.881-1.551-2.827
		c-1.164-1.896-2.666-3.899-4.504-6.013c-1.959-2.251-4.108-4.258-6.446-6.018c-2.545-1.904-5.125-3.29-7.739-4.164
		c-2.835-0.844-5.694-1.023-8.576-0.532c-3.063,0.564-6.04,2.106-8.934,4.624c-1.978,1.719-3.443,3.56-4.399,5.522
		c-0.964,2.048-1.471,4.064-1.522,6.047c-0.143,2.062,0.041,4.083,0.55,6.06c0.424,1.972,1.068,3.874,1.935,5.706
		c0.732,1.862,1.588,3.541,2.564,5.033c0.422,0.763,0.833,1.493,1.239,2.19c0.403,0.697,0.781,1.34,1.129,1.923
		c0.542,0.902,1.053,1.77,1.536,2.6c0.481,0.832,0.93,1.674,1.346,2.522c0.456,0.896,0.851,1.724,1.188,2.479
		c0.334,0.758,0.606,1.488,0.818,2.195c0.413,1.497,0.558,2.822,0.435,3.98c-0.222,1.323-0.813,2.404-1.779,3.243
		c-0.828,0.719-1.789,1.195-2.884,1.419c-1.14,0.267-2.392,0.265-3.755-0.003c-1.489-0.318-2.875-0.891-4.155-1.714
		c-1.453-0.837-2.86-2.034-4.218-3.597c-2.639-3.031-4.455-6.417-5.446-10.155c-0.8-2.776-1.456-5.755-1.968-8.945
		c-0.119-0.783-0.463-1.411-1.035-1.886c-0.572-0.47-1.251-0.646-2.035-0.529l-6.792,0.822c-0.787,0.121-1.415,0.463-1.886,1.037
		c-0.472,0.57-0.65,1.249-0.53,2.035c0.071,0.825,0.158,1.597,0.26,2.317c0.099,0.719,0.213,1.428,0.337,2.128
		c0.179,1.132,0.413,2.262,0.703,3.383c0.288,1.121,0.631,2.236,1.03,3.341c0.784,2.388,1.834,4.66,3.153,6.827
		c1.305,2.334,3.117,4.833,5.436,7.498c2.398,2.76,4.978,5.073,7.74,6.952c2.595,1.776,5.319,2.96,8.171,3.546
		c2.721,0.62,5.444,0.551,8.174-0.21c2.775-0.8,5.45-2.317,8.023-4.557c2.25-1.958,3.882-3.98,4.891-6.071
		c0.997-1.916,1.569-3.95,1.72-6.096c0.035-0.517,0.049-1.035,0.043-1.554c-0.008-0.519-0.057-1.06-0.146-1.627
		c-0.072-0.826-0.234-1.756-0.486-2.786c-0.252-1.032-0.503-1.923-0.752-2.676c-0.184-0.488-0.375-0.988-0.577-1.497
		c-0.202-0.51-0.417-0.991-0.645-1.438c-0.37-0.888-0.774-1.746-1.212-2.576c-0.438-0.83-0.893-1.604-1.359-2.329
		c-0.468-0.724-0.873-1.421-1.215-2.091c-0.342-0.672-0.688-1.3-1.035-1.886c-0.378-0.805-0.786-1.6-1.227-2.386
		c-0.441-0.785-0.871-1.604-1.286-2.452c-0.417-0.849-0.803-1.663-1.158-2.444c-0.357-0.778-0.68-1.569-0.97-2.366
		c-0.54-1.549-0.785-2.99-0.735-4.325c0.049-1.335,0.58-2.441,1.59-3.32s2.144-1.341,3.399-1.383
		c0.646,0.002,1.279,0.079,1.895,0.228c0.614,0.151,1.237,0.355,1.867,0.616c1.298,0.564,2.521,1.276,3.672,2.135
		c0.53,0.423,1.029,0.859,1.496,1.302c0.465,0.441,0.878,0.869,1.238,1.283c2.158,2.48,3.739,5.183,4.747,8.101
		c0.801,2.128,1.407,4.588,1.818,7.38c0.116,0.783,0.471,1.423,1.063,1.918C99.687,434.386,100.395,434.598,101.221,434.525z"/>
	<path fill="#FFFFFF" d="M172.292,467.142l-6.004-3.834c-0.668-0.426-1.38-0.556-2.138-0.388c-0.756,0.165-1.348,0.583-1.775,1.25
		l-19.864,31.107c-1.805,2.825-3.756,4.862-5.86,6.122c-2.104,1.256-4.193,1.983-6.269,2.177c-2.057,0.276-3.995,0.086-5.814-0.572
		c-1.907-0.637-3.423-1.318-4.552-2.039c-0.615-0.393-1.238-0.86-1.864-1.407c-0.629-0.546-1.288-1.183-1.978-1.913
		c-1.26-1.309-2.247-2.987-2.962-5.034c-0.615-1.983-0.809-4.166-0.586-6.554c0.256-2.438,1.286-5.069,3.089-7.892l19.865-31.107
		c0.426-0.667,0.556-1.379,0.388-2.137c-0.166-0.756-0.584-1.349-1.25-1.774l-6.083-3.885c-0.616-0.393-1.303-0.505-2.06-0.34
		c-0.757,0.168-1.349,0.586-1.775,1.254l-19.914,31.182c-2.328,3.647-3.845,7.266-4.55,10.86c-0.741,3.647-0.687,7.187,0.158,10.616
		c0.723,3.28,2.247,6.494,4.575,9.642c2.153,2.965,5.102,5.646,8.85,8.038c3.746,2.391,7.445,3.957,11.092,4.699
		c3.782,0.751,7.338,0.783,10.671,0.093c3.448-0.76,6.653-2.218,9.62-4.371c1.515-1.128,2.931-2.411,4.246-3.848
		c1.314-1.438,2.546-3.051,3.693-4.851l19.915-31.182c0.425-0.667,0.556-1.379,0.388-2.139
		C173.376,468.162,172.959,467.567,172.292,467.142z"/>
	<path fill="#FFFFFF" d="M239.157,498.648c-0.717-1.276-1.517-2.529-2.404-3.762c-0.887-1.229-1.869-2.408-2.942-3.534
		c-2.049-2.16-4.424-4.063-7.123-5.71c-2.758-1.662-5.632-2.918-8.623-3.76c-4.572-1.288-9.128-1.625-13.669-1.007
		c-4.483,0.635-8.698,2.011-12.648,4.125c-3.866,2.265-7.238,5.141-10.121,8.631c-2.899,3.55-4.993,7.609-6.281,12.181
		c-1.29,4.576-1.625,9.131-1.006,13.672c0.617,4.54,2.001,8.726,4.147,12.56c2.188,3.906,5.058,7.312,8.607,10.21
		c3.549,2.898,7.61,4.994,12.182,6.282c2.99,0.842,6.095,1.273,9.315,1.297c1.581,0.003,3.128-0.1,4.642-0.307
		c1.514-0.205,2.994-0.514,4.44-0.93c3.068-0.781,5.856-1.923,8.37-3.433c0.902-0.504,1.773-1.064,2.611-1.683
		c0.838-0.619,1.666-1.254,2.484-1.911c0.591-0.528,0.86-1.146,0.809-1.858c-0.053-0.711-0.389-1.312-1.01-1.804l-5.763-4.474
		c-0.563-0.475-1.273-0.705-2.131-0.693c-0.857,0.012-1.603,0.242-2.237,0.695c-0.377,0.212-0.755,0.438-1.139,0.677
		c-0.385,0.239-0.765,0.465-1.139,0.675c-0.828,0.465-1.658,0.878-2.488,1.246c-0.832,0.367-1.694,0.679-2.588,0.93
		c-0.895,0.256-1.802,0.441-2.722,0.562c-0.919,0.119-1.832,0.212-2.734,0.274c-1.85,0.049-3.683-0.186-5.499-0.697
		c-2.989-0.842-5.572-2.234-7.745-4.176c-2.267-1.842-4.019-4.043-5.257-6.608c-1.297-2.58-2.14-5.314-2.526-8.212
		c-0.386-2.89-0.158-5.831,0.685-8.823c0.827-2.93,2.168-5.558,4.026-7.883c1.839-2.265,3.986-4.159,6.441-5.682
		c2.377-1.481,5.032-2.475,7.959-2.979c2.968-0.426,5.888-0.237,8.761,0.574c1.816,0.512,3.5,1.271,5.054,2.276
		c0.737,0.527,1.467,1.078,2.189,1.662c0.721,0.584,1.397,1.216,2.026,1.899c0.63,0.687,1.209,1.386,1.734,2.104
		c0.524,0.716,1.019,1.488,1.482,2.315c0.209,0.377,0.415,0.765,0.618,1.17c0.203,0.406,0.408,0.795,0.62,1.172
		c0.304,0.721,0.822,1.29,1.556,1.721c0.733,0.43,1.462,0.588,2.191,0.474l7.251-0.802c0.787-0.096,1.384-0.419,1.792-0.968
		c0.407-0.548,0.497-1.201,0.269-1.964C241.016,502.497,240.193,500.586,239.157,498.648z"/>
	<path fill="#FFFFFF" d="M315.733,538.25l-6.875-2.441c-0.684-0.272-1.428-0.27-2.239,0.009c-0.812,0.279-1.446,0.735-1.906,1.365
		c-0.291,0.318-0.581,0.651-0.869,0.997c-0.291,0.349-0.579,0.684-0.872,1c-0.64,0.7-1.298,1.354-1.97,1.96
		c-0.674,0.611-1.397,1.177-2.164,1.697c-0.77,0.523-1.574,0.983-2.409,1.386c-0.837,0.404-1.674,0.779-2.511,1.118
		c-1.742,0.626-3.553,0.981-5.441,1.065c-3.102,0.135-5.991-0.377-8.663-1.537c-2.729-1.037-5.083-2.578-7.063-4.625
		c-2.042-2.043-3.7-4.378-4.973-7.005c-1.277-2.625-1.981-5.489-2.12-8.594c-0.135-3.041,0.315-5.959,1.351-8.747
		c1.036-2.729,2.482-5.201,4.335-7.417c1.794-2.15,4.001-3.927,6.623-5.322c2.683-1.339,5.518-2.073,8.5-2.206
		c1.883-0.084,3.723,0.109,5.513,0.579c0.862,0.268,1.729,0.564,2.6,0.891c0.867,0.327,1.706,0.718,2.521,1.169
		c0.812,0.451,1.581,0.935,2.304,1.453c0.724,0.517,1.435,1.096,2.135,1.734c0.318,0.291,0.635,0.598,0.955,0.916
		c0.318,0.323,0.638,0.628,0.956,0.919c0.514,0.588,1.186,0.97,2.016,1.146c0.832,0.177,1.574,0.098,2.229-0.237l6.634-3.037
		c0.716-0.337,1.184-0.83,1.397-1.479c0.214-0.65,0.096-1.3-0.36-1.95c-1.167-1.596-2.549-3.148-4.139-4.664
		c-1.081-0.988-2.234-1.926-3.465-2.818c-1.228-0.891-2.529-1.699-3.901-2.432c-2.622-1.407-5.476-2.472-8.554-3.19
		c-3.142-0.714-6.264-1.002-9.365-0.865c-4.747,0.212-9.179,1.323-13.296,3.332c-4.059,2.009-7.63,4.637-10.718,7.882
		c-2.96,3.364-5.26,7.152-6.903,11.372c-1.639,4.278-2.354,8.791-2.144,13.537c0.21,4.747,1.321,9.177,3.332,13.297
		c2.012,4.115,4.637,7.656,7.879,10.623c3.303,3.025,7.095,5.357,11.375,6.996c4.279,1.64,8.791,2.355,13.536,2.144
		c3.104-0.139,6.188-0.702,9.254-1.692c1.502-0.49,2.939-1.071,4.311-1.744c1.375-0.667,2.682-1.427,3.925-2.275
		c2.667-1.702,4.96-3.665,6.873-5.883c0.698-0.763,1.347-1.569,1.951-2.418c0.603-0.849,1.188-1.714,1.758-2.595
		c0.397-0.687,0.458-1.358,0.186-2.021C316.984,538.986,316.478,538.521,315.733,538.25z"/>
	<path fill="#FFFFFF" d="M391.102,524.399c-0.261-0.747-0.739-1.291-1.438-1.628c-0.697-0.337-1.42-0.377-2.169-0.116l-29.08,10.112
		c-0.748,0.26-1.47,0.221-2.169-0.117c-0.695-0.337-1.177-0.881-1.435-1.627l-3.302-9.493c-0.258-0.749-0.221-1.47,0.116-2.167
		s0.881-1.179,1.628-1.438l25.199-8.763c0.746-0.258,1.288-0.739,1.627-1.438c0.338-0.697,0.377-1.418,0.116-2.167l-1.95-5.61
		c-0.261-0.746-0.739-1.29-1.438-1.627c-0.697-0.337-1.42-0.377-2.167-0.116l-25.196,8.761c-0.749,0.261-1.472,0.224-2.17-0.116
		c-0.697-0.337-1.176-0.879-1.437-1.628l-3.632-10.441c-0.258-0.747-0.219-1.47,0.119-2.167c0.337-0.7,0.879-1.179,1.627-1.439
		l29.08-10.111c0.746-0.259,1.29-0.737,1.627-1.438c0.338-0.695,0.38-1.418,0.117-2.167l-1.86-5.35
		c-0.259-0.747-0.737-1.291-1.435-1.63c-0.7-0.338-1.423-0.375-2.17-0.114l-41.16,14.311c-0.749,0.261-1.291,0.74-1.628,1.438
		c-0.339,0.699-0.377,1.423-0.118,2.169l20.104,57.815c0.261,0.746,0.739,1.29,1.437,1.628c0.698,0.337,1.421,0.376,2.168,0.116
		l41.16-14.313c0.749-0.258,1.291-0.739,1.63-1.437c0.337-0.698,0.377-1.421,0.116-2.167L391.102,524.399z"/>
	<path fill="#FFFFFF" d="M451.906,474.535c-1.674-2.469-3.487-4.331-5.442-5.582c-1.783-1.219-3.731-2.032-5.848-2.437
		c-0.507-0.098-1.019-0.175-1.534-0.229c-0.517-0.053-1.061-0.071-1.635-0.051c-0.828-0.025-1.77,0.023-2.825,0.148
		c-1.056,0.128-1.97,0.271-2.743,0.429c-0.51,0.123-1.025,0.253-1.556,0.393c-0.532,0.14-1.035,0.295-1.505,0.467
		c-0.928,0.261-1.829,0.559-2.706,0.896c-0.874,0.337-1.699,0.695-2.474,1.072c-0.772,0.379-1.514,0.694-2.221,0.955
		c-0.709,0.261-1.374,0.525-1.995,0.803c-0.844,0.276-1.684,0.586-2.516,0.93c-0.832,0.347-1.695,0.674-2.588,0.983
		c-0.896,0.312-1.748,0.598-2.566,0.858c-0.816,0.26-1.64,0.488-2.465,0.679c-1.603,0.349-3.064,0.421-4.383,0.209
		c-1.318-0.207-2.353-0.867-3.106-1.974c-0.751-1.109-1.074-2.29-0.965-3.541c0.079-0.642,0.228-1.261,0.453-1.854
		c0.224-0.593,0.503-1.186,0.835-1.781c0.716-1.221,1.569-2.351,2.558-3.39c0.483-0.477,0.977-0.921,1.472-1.33
		c0.495-0.406,0.97-0.768,1.423-1.074c2.723-1.846,5.592-3.095,8.612-3.743c2.206-0.542,4.723-0.847,7.543-0.923
		c0.792-0.021,1.472-0.296,2.034-0.826c0.561-0.527,0.855-1.206,0.881-2.034l0.101-6.689c0.025-0.827-0.214-1.511-0.726-2.048
		s-1.182-0.816-2.009-0.847c-0.761,0.074-1.47,0.114-2.128,0.121c-0.66,0.005-1.344,0.028-2.051,0.065
		c-0.98,0.076-1.974,0.181-2.987,0.316c-1.014,0.132-2.027,0.322-3.037,0.569c-0.977,0.293-1.96,0.609-2.945,0.948
		c-0.986,0.338-1.983,0.737-2.992,1.2c-2.021,0.93-4.19,2.179-6.509,3.753c-2.469,1.674-4.717,3.568-6.744,5.678
		c-2.195,2.299-3.883,4.691-5.062,7.187c-1.179,2.713-1.697,5.529-1.555,8.449c0.192,3.108,1.367,6.247,3.52,9.424
		c1.472,2.169,3.123,3.843,4.957,5.029c1.918,1.202,3.859,1.945,5.822,2.234c2.027,0.388,4.058,0.448,6.082,0.179
		c2.007-0.184,3.972-0.598,5.893-1.237c1.938-0.504,3.708-1.15,5.308-1.943c0.807-0.325,1.581-0.648,2.323-0.968
		c0.739-0.318,1.423-0.615,2.043-0.89c0.961-0.431,1.881-0.835,2.768-1.214c0.883-0.379,1.771-0.724,2.664-1.035
		c0.944-0.344,1.812-0.639,2.604-0.881c0.79-0.244,1.548-0.426,2.276-0.551c1.534-0.23,2.869-0.219,4.001,0.044
		c1.288,0.379,2.29,1.095,3.009,2.155c0.616,0.906,0.97,1.918,1.062,3.032c0.128,1.165-0.023,2.406-0.451,3.727
		c-0.497,1.441-1.228,2.748-2.199,3.92c-1.005,1.345-2.362,2.598-4.076,3.758c-3.325,2.258-6.903,3.655-10.734,4.192
		c-2.851,0.46-5.89,0.755-9.115,0.883c-0.795,0.023-1.457,0.289-1.997,0.8c-0.534,0.512-0.793,1.165-0.77,1.958l0.005,6.841
		c0.023,0.795,0.288,1.462,0.802,1.994c0.51,0.54,1.163,0.796,1.956,0.771c0.827,0.029,1.604,0.034,2.332,0.021
		s1.443-0.04,2.152-0.081c1.149-0.042,2.298-0.14,3.446-0.291c1.146-0.153,2.295-0.36,3.438-0.625
		c2.463-0.491,4.846-1.263,7.154-2.312c2.475-1.017,5.174-2.516,8.096-4.499c3.025-2.051,5.634-4.336,7.829-6.853
		c2.074-2.362,3.573-4.924,4.497-7.688c0.943-2.625,1.199-5.339,0.771-8.141C455.009,480.194,453.82,477.358,451.906,474.535z"/>
	<path fill="#FFFFFF" d="M501.749,418.95c-2.297-1.904-4.557-3.184-6.782-3.844c-2.053-0.674-4.152-0.909-6.296-0.709
		c-0.514,0.049-1.025,0.118-1.537,0.207c-0.512,0.093-1.039,0.228-1.583,0.409c-0.805,0.207-1.693,0.516-2.672,0.93
		c-0.977,0.419-1.815,0.81-2.518,1.177c-0.451,0.258-0.912,0.53-1.384,0.809c-0.472,0.284-0.909,0.575-1.313,0.87
		c-0.818,0.509-1.6,1.049-2.346,1.616c-0.747,0.567-1.442,1.139-2.079,1.718c-0.64,0.579-1.263,1.091-1.867,1.537
		c-0.609,0.444-1.172,0.888-1.694,1.325c-0.73,0.502-1.451,1.032-2.153,1.595c-0.705,0.565-1.441,1.121-2.214,1.667
		c-0.77,0.549-1.511,1.062-2.223,1.54c-0.714,0.477-1.439,0.925-2.179,1.339c-1.441,0.786-2.825,1.258-4.147,1.425
		c-1.328,0.168-2.504-0.177-3.537-1.032c-1.029-0.855-1.669-1.899-1.915-3.132c-0.103-0.637-0.128-1.274-0.079-1.904
		c0.046-0.632,0.15-1.278,0.305-1.943c0.349-1.372,0.851-2.695,1.511-3.969c0.333-0.593,0.682-1.156,1.042-1.686
		c0.362-0.533,0.716-1.01,1.067-1.433c2.099-2.532,4.508-4.527,7.226-5.994c1.97-1.135,4.3-2.13,6.987-2.987
		c0.758-0.242,1.33-0.698,1.723-1.363c0.394-0.662,0.486-1.395,0.281-2.199l-1.771-6.452c-0.205-0.802-0.628-1.391-1.268-1.763
		c-0.642-0.372-1.359-0.455-2.164-0.251c-0.709,0.281-1.379,0.517-2.012,0.707c-0.63,0.188-1.281,0.4-1.95,0.635
		c-0.921,0.347-1.847,0.724-2.781,1.135c-0.935,0.414-1.855,0.879-2.758,1.395c-0.857,0.556-1.711,1.131-2.562,1.73
		c-0.854,0.6-1.7,1.263-2.542,1.99c-1.681,1.453-3.415,3.262-5.203,5.417c-1.904,2.298-3.536,4.741-4.895,7.334
		c-1.465,2.82-2.418,5.589-2.857,8.312c-0.372,2.935-0.086,5.785,0.863,8.55c1.053,2.93,3.057,5.619,6.01,8.067
		c2.019,1.672,4.069,2.82,6.161,3.448c2.177,0.616,4.251,0.793,6.213,0.523c2.058-0.193,4.022-0.702,5.892-1.525
		c1.877-0.737,3.65-1.681,5.315-2.832c1.721-1.022,3.239-2.139,4.555-3.344c0.684-0.541,1.337-1.066,1.96-1.578
		s1.195-0.988,1.716-1.428c0.803-0.679,1.572-1.323,2.318-1.935c0.742-0.611,1.502-1.188,2.27-1.736
		c0.812-0.594,1.562-1.119,2.255-1.572c0.693-0.456,1.37-0.842,2.032-1.165c1.409-0.648,2.695-1.007,3.857-1.071
		c1.342,0.004,2.504,0.413,3.487,1.229c0.847,0.7,1.468,1.572,1.867,2.616c0.449,1.083,0.651,2.317,0.607,3.706
		c-0.075,1.521-0.414,2.98-1.019,4.378c-0.591,1.569-1.547,3.15-2.867,4.743c-2.566,3.095-5.612,5.436-9.142,7.018
		c-2.609,1.241-5.443,2.369-8.508,3.39c-0.756,0.246-1.318,0.686-1.69,1.327c-0.374,0.642-0.439,1.34-0.195,2.096l1.911,6.567
		c0.244,0.756,0.686,1.318,1.325,1.693c0.64,0.372,1.34,0.437,2.095,0.192c0.805-0.202,1.551-0.413,2.244-0.63
		c0.695-0.216,1.376-0.441,2.046-0.679c1.091-0.36,2.167-0.774,3.225-1.242c1.061-0.467,2.104-0.985,3.132-1.558
		c2.228-1.16,4.302-2.564,6.225-4.215c2.093-1.665,4.267-3.857,6.521-6.578c2.332-2.813,4.199-5.733,5.606-8.763
		c1.334-2.849,2.06-5.727,2.179-8.638c0.169-2.786-0.34-5.464-1.53-8.033C506.307,423.521,504.374,421.126,501.749,418.95z"/>
	<path fill="#FFFFFF" d="M165.216,279.705c-1.97-0.691-4.068-1.414-6.125-1.457c-0.029-0.002-0.061,0.002-0.091,0.002
		c-6.425,1.111-12.453,4.563-16.003,9.656c-0.017,0.025-0.045,0.037-0.066,0.064c-0.43,2.695,0.13,5.506,1.202,8.255
		c0.084,0.214,0.097,0.409,0.1,0.602c0.665,1.165,1.415,2.279,2.195,3.302c1.021,1.349,2.487,2.512,3.25,3.943
		c1.832,1.007,3.418,2.239,5.691,1.716c1.345-1.672,1.333-2.844-0.422-4.105c-2.29-1.651-3.491-3.812-3.235-6.371
		c0.05-0.505,0.136-1.002,0.25-1.5c-0.288-3.188,1.731-6.966,4.785-8.217c3.954-1.626,7.804-3.043,12.027-2.989l-0.005-0.794
		C167.576,281.083,166.495,280.151,165.216,279.705z"/>
	<path fill="#FFFFFF" d="M199.477,331.531c-2.196-2.201-3.61-4.917-3.33-8.318c0.371-4.532,2.505-8.536,6.509-11.042
		c-0.107-0.121-0.2-0.249-0.328-0.365c-2.016,0.514-3.62,0.839-5.152,1.349c-0.916,0.305-1.76,0.849-2.569,1.367
		c-3.21,2.066-5.461,4.804-6.856,8.219c-0.8,1.955-0.52,5.44,1.058,6.908c2.404,2.236,5.067,4.129,8.515,4.819
		c1.691,0.34,3.361,0.766,5.179,1.184c0.565-0.177,1.186-0.376,1.787-0.564c-0.031-0.019-0.066-0.035-0.1-0.056
		C202.358,334.252,200.699,333.043,199.477,331.531z"/>
	<path fill="#FFFFFF" d="M370.605,291.651c-3.799-1.288-7.336,0.333-10.891,0.986c-0.365,1.093-0.681,2.029-0.997,2.979
		c1.553-0.131,3.126-0.094,4.577,0.183c-0.149,0.037-0.297,0.072-0.448,0.11c-0.093,0.023-0.188,0.046-0.283,0.069
		c0.347,0.04,0.683,0.093,1.012,0.152c1.148,0.21,2.19,0.538,3.111,0.982c1.421,0.944,2.455,2.368,2.799,4.438
		c0.165,0.968,0.137,2.042,0.037,3.125c0.274,1.872-0.121,3.583-1.156,5.12c-0.697,1.871-1.681,3.354-2.701,4.947
		c0.197,0.072,0.396,0.149,0.593,0.224c4.669-2.367,9.653-6.457,11.606-11.228c0.191-1.36,0.133-2.795-0.137-4.302
		C377.007,295.428,374.495,292.97,370.605,291.651z"/>
</g>
</svg>
